<svg xmlns="http://www.w3.org/2000/svg" viewBox="0 0 44 44"><defs><style>.cls-1{fill:#354052;}</style></defs><title>ic_trash</title><g id="レイヤー_2" data-name="レイヤー 2"><path class="cls-1" d="M22,10.07A11.93,11.93,0,1,1,10.07,22,11.94,11.94,0,0,1,22,10.07M22,8A14,14,0,1,0,36,22,14,14,0,0,0,22,8Z"/><rect class="cls-1" x="20.79" y="28.28" width="2.5" height="2.5"/><path class="cls-1" d="M23.29,26.28h-2.5V21.72H22a2.5,2.5,0,0,0,0-5,2.18,2.18,0,0,0-1.38.38L19,15.26a4.58,4.58,0,0,1,3.08-1,5,5,0,0,1,1.25,9.84Z"/></g></svg>